<svg width="113" height="126" viewBox="0 0 113 126" fill="none" xmlns="http://www.w3.org/2000/svg">
<path d="M41.4983 20.1132L41.5378 20.111C41.5875 20.1085 41.6577 20.1054 41.7446 20.1025C41.9182 20.0967 42.1608 20.0918 42.4424 20.0951C42.99 20.1015 43.7468 20.1392 44.4365 20.2859C44.7799 20.359 45.1632 20.4705 45.5125 20.6529C45.8519 20.8302 46.2832 21.1402 46.5205 21.6708C46.779 22.2488 46.7 22.8403 46.4754 23.331C46.2652 23.7901 45.9105 24.2111 45.4896 24.6038L41.4983 20.1132ZM41.4983 20.1132H17.6976V19.9053C20.1989 18.0825 21.8343 15.1339 21.8343 11.7921C21.8343 6.2492 17.338 1.75 11.7921 1.75C6.24653 1.75 1.75 6.24653 1.75 11.7921C1.75 15.6773 3.95685 19.0424 7.18188 20.7126V114.128C7.18188 116.713 7.65274 119.114 8.46656 120.916C9.22815 122.602 10.5372 124.25 12.4397 124.25C14.3422 124.25 15.6513 122.602 16.4129 120.916C17.2267 119.114 17.6976 116.713 17.6976 114.128V85.9929L34.3347 86.0971V88.445C34.2642 89.8834 34.6338 91.0421 35.3433 91.9177C36.0402 92.7779 36.9684 93.2457 37.8052 93.5018C38.6427 93.758 39.464 93.8261 40.0561 93.8353C40.3567 93.84 40.6096 93.8297 40.791 93.8178C40.882 93.8118 40.9556 93.8054 41.009 93.8001C41.0119 93.7998 41.0148 93.7996 41.0175 93.7993H101.516C107.106 93.7993 111.638 89.2673 111.638 83.6772V38.1869C111.638 32.5968 107.106 28.0648 101.516 28.0648H101.414H101.312H101.209H101.106H101.002H100.898H100.794H100.689H100.583H100.477H100.371H100.264H100.157H100.05H99.9416H99.8332H99.7243H99.6151H99.5054H99.3953H99.2849H99.174H99.0627H98.951H98.8389H98.7264H98.6136H98.5003H98.3867H98.2726H98.1582H98.0434H97.9282H97.8127H97.6967H97.5804H97.4637H97.3467H97.2293H97.1115H96.9934H96.8749H96.7561H96.6369H96.5173H96.3974H96.2772H96.1566H96.0357H95.9144H95.7928H95.6709H95.5486H95.426H95.3031H95.1798H95.0562H94.9323H94.8081H94.6836H94.5587H94.4336H94.3081H94.1823H94.0562H93.9299H93.8032H93.6762H93.5489H93.4214H93.2935H93.1654H93.0369H92.9082H92.7792H92.6499H92.5204H92.3906H92.2605H92.1301H91.9995H91.8686H91.7374H91.606H91.4743H91.3424H91.2102H91.0777H90.945H90.8121H90.6789H90.5455H90.4118H90.278H90.1438H90.0095H89.8749H89.74H89.605H89.4697H89.3342H89.1985H89.0626H88.9265H88.7901H88.6536H88.5168H88.3798H88.2427H88.1053H87.9677H87.8299H87.692H87.5538H87.4155H87.277H87.1383H86.9994H86.8603H86.7211H86.5817H86.4421H86.3024H86.1624H86.0223H85.8821H85.7417H85.6011H85.4604H85.3195H85.1785H85.0373H84.896H84.7545H84.6129H84.4712H84.3293H84.1873H84.0451H83.9029H83.7605H83.6179H83.4753H83.3325H83.1896H83.0466H82.9035H82.7602H82.6169H82.4735H82.3299H82.1862H82.0425H81.8986H81.7547H81.6107H81.4665H81.3223H81.178H81.0336H80.8892H80.7446H80.6H80.4553H80.3105H80.1657H80.0208H79.8758H79.7308H79.5857H79.4406H79.2954H79.1501H79.0048H78.8595H78.7141H78.5686H78.4231H78.2776H78.132H77.9865H77.8408H77.6952H77.5495H77.4038H77.258H77.1123H76.9665H76.8207H76.6749H76.5291H76.3833H76.2375H76.0917H75.9458H75.8H75.6542H75.5083H75.3625H75.2167H75.0709H74.9252H74.7794H74.6337H74.4879H74.3422H74.1966H74.0509H73.9053H73.7598H73.6142H73.4687H73.3232H73.1778H73.0325H72.8871H72.7418H72.5966H72.4514H72.3063H72.1613H72.0163H71.8713H71.7265H71.5817H71.437H71.2923H71.1477H71.0032H70.8588H70.7145H70.5702H70.426H70.282H70.138H69.9941H69.8503H69.7066H69.563H69.4195H69.2761H69.1328H68.9896H68.8466H68.7036H68.5608H68.4181H68.2755H68.133H67.9907H67.8485H67.7064H67.5645H67.4227H67.281H67.1395H66.9981H66.8568H66.7157H66.5748H66.434H66.2934H66.1529H66.0126H65.8724H65.7324H65.5926H65.4529H65.3134H65.1741H65.0349H64.896H64.7572H64.6186H64.4802H64.3419H64.2039H64.066H63.9284H63.7909H63.6537H63.5166H63.3797H63.2431H63.1066H62.9704H62.8344H62.6986H62.563H62.4276H62.2925H62.1575H62.0228H61.8884H61.7541H61.6201H61.4863H61.3528H61.2195H61.0865H60.9537H60.8211H60.6888H60.5568H60.425H60.2934H60.1621H60.0311H59.9004H59.7699H59.6397H59.5097H59.38H59.2506H59.1215H58.9927H58.8641H58.7358H58.6078H58.4801H58.3527H58.2256H58.0988H57.9723H57.846H57.7201H57.5945H57.4692H57.3442H57.2195H57.0952H56.9711H56.8474H56.724H56.6009H56.4782H56.3557H56.2337H56.1119H55.9905H55.8694H55.7486H55.6282H55.5082H55.3885H55.2691H55.1501H55.0315H54.9132H54.7952H54.6777H54.5604H54.4436H54.3271H54.211H54.0953H53.9799H53.865H53.7504H53.6362H53.5223H53.4089H53.2958H53.1832H53.0709H52.959H52.8476H52.7365H52.6258H52.5156H52.4057H52.2963H52.1872H52.0786H51.9704H51.8627H51.7553H51.6484H51.5419H51.4358H51.3302H51.225H51.1202H51.0159H50.912H50.8085H50.7055H50.603H50.5009H50.3992H50.298H50.1973H50.097H49.9972H49.8978H49.7989H49.7005H49.6026H49.5051H49.4081H49.3116H49.2155H49.12H49.0249H48.9303H48.8362H48.7426H48.6495H48.5569H48.4648H48.3731H48.282H48.1914H48.1013H48.0118H47.9227H47.8341H47.7461H47.6586H47.5716H47.4851H47.3992H47.3137H47.2289H47.1445H47.0607H46.9774H46.8947H46.8125H46.7309H46.6498H46.5692H46.4892H46.4098H46.3309H46.2526H46.1748H46.0976H46.021H45.9449H45.8695H45.7945H45.7202H45.6464H45.5733H45.5007H45.4287H45.3572H45.2864H45.2162H45.1465H45.0775H45.009H44.9412H44.8739H44.8073H44.7412H44.6758H44.611H44.5468H44.4832H44.4203H44.358H44.2963H44.2352H44.1747H44.1149H44.0557H43.9972H43.9393H43.882H43.8254H43.7694H43.7141H43.6594H43.6054H43.552H43.4993H43.4472H43.3958H43.3451H43.295H43.2457H43.1969H43.1489H43.1015H43.0548H43.0088H42.9635H42.9188H42.8749H42.8316H42.789H42.7472H42.706H42.6655H42.6257H42.5866H42.5483H42.5106H42.4737H42.4374H42.4019H42.3671H42.333H42.2997H42.267H42.2351H42.2039H42.1735H42.1438H42.1148C41.7439 28.0648 41.4312 28.0544 41.1697 28.0364C41.6112 27.6572 42.1929 27.219 42.8647 26.7151L42.8941 26.693C43.7457 26.0544 44.712 25.3297 45.4893 24.6041L41.4983 20.1132Z" fill="#010002" stroke="white" stroke-width="2.5"/>
</svg>
