<svg width="48" height="48" viewBox="0 0 48 48" fill="none" xmlns="http://www.w3.org/2000/svg">
<path fill-rule="evenodd" clip-rule="evenodd" d="M12.8913 38.1213L1.77002 27L12.8913 15.8787C14.0629 14.7072 15.9624 14.7072 17.134 15.8787C18.3056 17.0502 18.3056 18.9497 17.134 20.1213L13.2553 24H34.5127C36.9979 24 39.0127 21.9853 39.0127 19.5C39.0127 17.0148 36.9979 15 34.5127 15H30.0127C28.3558 15 27.0127 13.6569 27.0127 12C27.0127 10.3431 28.3558 9 30.0127 9H34.5127C40.3117 9 45.0127 13.701 45.0127 19.5C45.0127 25.299 40.3117 30 34.5127 30H13.2553L17.134 33.8787C18.3056 35.0503 18.3056 36.9497 17.134 38.1213C15.9624 39.2929 14.0629 39.2929 12.8913 38.1213Z" fill="black"/>
</svg>
