<svg width="250" height="196" viewBox="0 0 250 196" fill="none" xmlns="http://www.w3.org/2000/svg">
<path fill-rule="evenodd" clip-rule="evenodd" d="M23.3858 28.0864L55.8727 2.31966e-05L55.8727 0H60.246H205.813V2.16049L25.8847 158.796H23.3857L23.3857 28.0864L23.3858 28.0864Z" fill="url(#paint0_linear_905_636)" fill-opacity="0.75"/>
<path fill-rule="evenodd" clip-rule="evenodd" d="M23.3858 8.64197L33.3818 7.04145e-06L33.3818 1.32213e-06L50.8748 0L50.8748 1.90521e-05L23.3858 23.7654L23.3857 23.7654V8.64194L23.3858 8.64197Z" fill="#B4C5E6" fill-opacity="0.56"/>
<path fill-rule="evenodd" clip-rule="evenodd" d="M250 0H217.313L23.3858 167.658L23.3858 195.918L250 0ZM0 187.876L1.78094 186.336L1.78094 189.416L0 187.876Z" fill="url(#paint1_linear_905_636)" fill-opacity="0.56"/>
<defs>
<linearGradient id="paint0_linear_905_636" x1="114.599" y1="0" x2="114.599" y2="158.796" gradientUnits="userSpaceOnUse">
<stop stop-color="#9CF2F7"/>
<stop offset="1" stop-color="#07BEC8"/>
</linearGradient>
<linearGradient id="paint1_linear_905_636" x1="125" y1="0" x2="125" y2="195.917" gradientUnits="userSpaceOnUse">
<stop stop-color="#B4C5E6"/>
<stop offset="1" stop-color="#83878D"/>
</linearGradient>
</defs>
</svg>
